<svg width="1254" height="1254" viewBox="0 0 1254 1254" fill="none" xmlns="http://www.w3.org/2000/svg">
<path d="M602.124 243.785C615.648 242.463 638.2 243.328 652.056 244.321C664.584 245.219 670.939 257.059 672.397 269.09C746.577 282.752 795.017 344.519 796.015 419.277C819.521 422.286 816.613 435.252 817.341 452.87C818.591 483.166 801.134 479.153 779.048 479.18L779.103 489.255C810.006 496.979 805.132 534.656 793.033 556.153C787.253 566.422 779.219 572.349 767.849 575.368C758.493 607.554 744.159 634.899 720.04 658.595C719.771 668.906 720.022 679.297 719.875 689.608C719.801 695.107 720.695 703.538 727.02 705.546C753.821 714.033 783.848 718.558 809.663 729.818C805.316 738.96 800.295 747.214 795.292 755.994C795.452 751.855 795.445 747.483 795.501 743.319C781.02 739.033 767.824 735.065 753.221 731.208C752.523 759.956 753.845 800.386 752.829 829.618C752.7 833.279 727.535 877.035 725.135 877.616C701.763 883.262 671.613 881.615 647.084 881.621L510.698 881.602C498.568 881.651 486.437 881.633 474.307 881.547C444.827 881.388 442.568 877.102 442.67 908.495L442.876 949.427C442.917 955.771 443.669 962.996 442.691 969.211C442.251 972.009 441.001 975.113 438.416 976.577C436.405 977.716 433.411 977.728 431.228 977.146C429.011 976.546 427.197 975.279 426.132 973.209C424.71 970.448 424.828 888.258 426.21 883.072C428.363 874.983 438.784 868.86 439.534 865.946L439.45 748.506C398.71 764.26 360.059 786.585 347.027 831.332C343.743 842.605 342.029 860.135 340.367 872.228L330.385 948.386C329.615 954.571 328.631 969.309 325.494 975.132C324.01 977.887 315.334 978.683 312.824 975.542C310.471 972.591 309.792 969.407 310.114 965.396C311.268 954.197 313.023 943.2 314.554 932.068C316.76 917.226 318.076 901.245 320.382 886.58C323.571 866.301 325.181 838.153 331.565 819.429C338.318 799.774 350.108 782.237 365.758 768.571C395.366 742.529 450.799 723.395 488.768 714.082C539.302 701.683 532.934 711.577 532.655 658.668C509.732 635.627 493.334 606.916 485.139 575.464C456.324 568.716 443.54 530.073 454.093 503.955C457.387 495.802 465.255 491.592 473.265 488.906L473.346 479.162C464.162 478.826 451.381 480.794 443.708 476.273C440.388 474.597 435.969 468.876 435.922 464.987C435.663 443.509 429.265 423.974 456.55 419.174C455.882 390.737 466.51 356.633 482.302 333.214C507.25 296.222 537.625 277.97 580.255 268.856C581.111 254.524 588.385 246.734 602.124 243.785ZM491.628 479.259L491.645 510.928C468.054 497.57 464.554 520.251 471.089 537.411C473.079 542.635 479.248 554.627 483.899 555.581C504.512 559.807 499.16 561.282 506.034 581.392C512.59 600.575 523.248 618.819 536.601 635.493C542.067 641.107 547.131 646.428 553.113 651.412C599.911 690.41 666.366 685.806 708.872 642.754C732.127 619.199 744.183 593.428 752.719 561.856C755.272 557.621 764.334 557.571 768.118 555.546C779.152 549.645 784.504 533.214 784.4 521.222C784.259 505.486 772.325 504.443 761.101 510.657C761.058 506.514 761.169 481.321 760.348 479.498L758.775 479.127C670.088 479.448 580.11 478.182 491.628 479.259ZM520.492 724.938C518.117 725.795 517.49 725.507 516.477 727.179C516.231 771.981 515.775 819.986 516.582 864.617L634.128 864.605C670.052 864.617 699.706 865.927 735.415 860.576C736.297 843.162 735.715 819.986 735.611 802.211C735.593 777.749 735.06 750.838 735.923 726.554C733.866 726.022 731.692 725.526 729.696 724.828C720.083 752.155 704.145 769.6 678.134 782.176C649.852 795.855 611.036 796.645 582.048 786.419C553.472 776.341 530.763 754.855 521.473 726.199C521.229 725.446 521.142 725.526 520.492 724.938ZM605.638 262.342C601.152 263.84 599.194 265.983 598.992 270.92C598.74 277.054 598.859 283.253 598.861 289.398L598.887 323.634C598.917 352.206 598.432 382.35 599.021 410.809L647.972 410.76L653.323 410.703L653.379 315.017L653.458 285.816C653.476 280.395 653.862 274.616 653.238 269.241C653.03 267.444 652.411 266.158 651.168 264.853C646.955 260.419 613.469 262.334 605.638 262.342ZM459.076 864.599L498.731 864.543C498.668 855.536 499.193 732.904 498.08 730.804L497.756 730.59C486.462 733.48 466.978 738.256 456.513 742.505C456.423 776.561 456.487 828.185 456.488 863.778C456.697 864.023 456.906 864.262 457.115 864.507L459.076 864.599ZM672.17 410.84C678.257 410.803 689.78 411.085 695.432 410.584C695.199 405.441 695.193 399.664 695.26 394.503C695.689 361.735 694.562 328.44 695.603 295.719C688.157 292.336 680.179 290.286 672.195 288.545L672.17 410.84ZM538.438 719.55C547.096 741.562 561.792 758.468 583.853 767.34C622.506 782.887 664.125 776.402 694.293 748.42C704.647 737.478 707.206 732.469 712.374 718.693C698.316 704.818 702.308 690.992 702.204 672.825C685.965 683.301 670.364 690.845 651.064 693.931C614.736 699.748 581.471 693.637 550.672 673.217C550.981 690.961 554.473 707.671 538.438 719.55ZM556.994 410.205C559.033 411.227 576.333 410.826 580.305 410.842L580.322 288.667C571.129 290.611 565.458 292.25 556.699 295.651C557.902 309.903 557.356 333.209 557.242 348.284C557.093 367.914 557.857 390.977 556.994 410.205ZM494.972 420.786L475.29 420.675C475.18 426.312 475.615 431.052 471.357 435.199C465.182 441.213 454.656 433.943 454.266 444.158C454.061 449.511 454.289 454.447 454.326 459.749L798.238 459.798C798.458 454.432 799.756 444.205 796.425 439.734C793.315 435.566 785.165 440.052 781.595 436.036C777.352 431.509 777.493 426.6 777.419 420.886C771.174 420.556 763.979 420.69 757.66 420.662C757.238 423.923 755.303 429.151 751.837 429.335C729.966 430.493 704.304 429.919 682.592 429.928L563.941 429.954C544.22 429.944 524.497 429.939 504.777 429.877C498.221 429.856 496.134 426.807 494.972 420.786Z" fill="#242424"/>
<path d="M695.603 295.719C730.425 311.097 753.839 335.787 768.014 371.429C774.817 388.542 776.495 402.781 777.419 420.886C771.174 420.556 763.979 420.69 757.66 420.662C757.372 414.09 754.966 411.218 748.151 410.689C741.489 410.172 734.766 410.466 728.086 410.518L695.432 410.584C695.199 405.441 695.193 399.664 695.26 394.503C695.689 361.735 694.562 328.44 695.603 295.719Z" fill="#ED1A3B"/>
<path d="M556.699 295.651C557.902 309.903 557.356 333.209 557.242 348.284C557.093 367.914 557.857 390.977 556.994 410.205C550.934 412.815 512.148 408.528 503.192 410.768C496.723 412.385 495.478 414.977 494.972 420.786L475.29 420.675C475.469 404.532 478.363 388.534 483.852 373.351C497.426 336.417 521.478 312.095 556.699 295.651Z" fill="#ED1A3B"/>
<path d="M913.265 563.582C943.158 560.609 949.954 574.688 933.012 597.56C927.109 606.745 921.341 616.162 915.494 625.359C908.452 636.435 912.065 646.404 921.507 654.498C929.234 661.124 939.147 665.361 949.207 662.25C957.008 659.844 962.176 650.127 966.376 643.593L978.555 624.587C981.745 619.609 984.562 613.958 990.722 612.335C1006.73 608.11 1011.69 622.836 1014.83 635.248C1021.01 659.33 1017.22 684.887 1004.31 706.134C991.959 726.438 971.869 740.84 948.675 746.02C934.047 749.21 921.721 746.007 913.32 760.262C908.452 768.516 903.566 776.874 898.79 785.17C911.502 799.706 920.594 818.566 923.466 838.08C929.914 881.872 937.359 926.258 942.233 970.246C943.158 978.622 926.142 980.398 924.911 971.96C920.148 939.275 915.678 906.303 910.841 873.593C906.94 846.829 905.63 826.862 890.151 803.687L889.281 802.719C889.024 802.817 888.706 802.829 888.504 803.019C887.34 804.158 835.564 891.846 831.284 900.743C830.218 902.966 829.581 904.992 829.281 907.442C827.91 918.512 832.202 970.142 827.102 975.242C825.375 976.975 822.803 977.606 820.421 977.501C818.309 977.41 815.413 976.693 814.084 974.893C810.184 969.597 812.168 939.685 812.278 932.068C800.136 953.505 791.612 974.434 764.396 977.03C733.903 979.938 712.344 953.848 717.848 924.415C719.654 914.759 724.988 907.478 729.641 899.065C732.886 893.279 736.303 887.535 739.603 881.774C748.065 866.766 756.668 851.844 765.406 836.996L818.897 744.085C824.432 734.539 834.976 717.284 839.164 707.242C840.879 703.134 832.692 685.904 830.788 679.34C829.043 673.351 827.898 667.21 827.377 660.995C825.473 636.374 833.494 612.015 849.653 593.347C866.491 573.875 888.124 565.396 913.265 563.582ZM816.05 891.209L872.571 794.961L891.13 762.821C897.725 751.42 906.45 733.927 920.503 732.506C950.273 729.5 973.289 722.201 990.189 694.115C999.692 678.403 1002.57 659.568 998.186 641.738C997.445 638.793 996.22 635.346 995.155 632.462C989.626 640.74 973.271 667.565 966.97 672.892C937.047 698.229 882.681 662.985 895.778 625.12C898.851 616.236 915.69 590.75 921.446 581.732C919.015 581.596 915.665 581.3 913.314 581.363C867.9 584.399 835.343 629.302 847.43 672.702C854.631 698.548 866.038 697.231 849.647 726.389C823.826 771.479 797.778 816.429 771.492 861.249L748.616 900.565C744.404 907.84 740.412 914.691 736.615 922.241C726.604 942.159 746.259 964.392 767.188 958.569C781.718 954.528 787.51 939.318 794.698 927.06C801.746 915.071 808.861 903.119 816.05 891.209Z" fill="#242424"/>
</svg>
